<mxfile host="app.diagrams.net" modified="2023-11-20T01:36:52.413Z" agent="Mozilla/5.0 (Macintosh; Intel Mac OS X 10_15_7) AppleWebKit/537.36 (KHTML, like Gecko) Chrome/119.0.0.0 Safari/537.36" version="22.1.3" etag="_jGikzgA645zXi6gwe77" type="github">
  <diagram name="페이지-1" id="ticp64uH2De2bn5q1VQZ">
    <mxGraphModel>
      <root>
        <mxCell id="0" />
        <mxCell id="1" parent="0" />
      </root>
    </mxGraphModel>
  </diagram>
</mxfile>
